<svg xmlns="http://www.w3.org/2000/svg" width="140.000000pt" height="140.000000pt" preserveAspectRatio="xMidYMid meet" version="1.0" viewBox="0 0 140.000000 140.000000"><metadata>Created by potrace 1.14, written by Peter Selinger 2001-2017</metadata><g fill="#000000" stroke="none" transform="translate(0.000000,140.000000) scale(0.100000,-0.100000)"><path d="M525 1380 c3 -5 -3 -18 -14 -29 -11 -11 -17 -22 -13 -25 3 -3 0 -6
-7 -6 -7 0 -9 -4 -6 -10 3 -5 1 -10 -5 -10 -6 0 -9 -4 -6 -9 3 -5 -1 -11 -9
-15 -8 -3 -15 -12 -15 -19 0 -8 -7 -20 -15 -27 -8 -7 -12 -16 -9 -21 3 -5 1
-9 -4 -9 -5 0 -17 -15 -27 -34 -11 -19 -22 -33 -26 -31 -4 3 -12 -9 -19 -25
-7 -16 -24 -42 -39 -56 -14 -15 -19 -24 -11 -20 9 4 8 2 -2 -7 -10 -8 -18 -17
-18 -21 0 -4 -12 -23 -26 -42 -15 -19 -23 -34 -19 -34 3 0 0 -7 -7 -15 -31
-34 -36 -43 -31 -49 4 -3 2 -6 -4 -6 -5 0 -25 -24 -43 -52 -19 -29 -44 -64
-57 -77 -12 -14 -20 -28 -17 -33 3 -4 -2 -8 -10 -8 -9 0 -16 -9 -16 -20 0 -11
7 -20 15 -20 8 0 15 -3 16 -7 2 -18 8 -46 13 -60 7 -16 31 -13 31 5 0 6 8 17
17 24 9 7 18 19 20 27 2 7 13 25 26 39 12 14 22 31 22 37 0 7 7 15 15 19 8 3
15 12 15 21 0 8 3 15 8 15 6 0 41 53 42 65 0 3 8 14 18 24 34 38 43 51 35 51
-4 1 3 10 16 20 13 11 20 20 16 20 -3 0 3 12 14 26 11 15 18 30 15 35 -3 5 2
9 10 9 8 0 18 5 22 12 5 7 3 8 -7 3 -11 -7 -11 -5 1 10 8 11 20 26 25 33 6 7
16 19 23 27 7 8 10 19 7 25 -3 5 -2 10 4 10 5 0 19 16 31 35 36 58 48 66 73
52 12 -6 24 -15 27 -18 3 -3 37 -21 75 -39 39 -18 73 -38 76 -43 3 -5 8 -8 10
-6 9 5 49 -13 49 -22 0 -6 5 -7 10 -4 6 3 10 1 10 -4 0 -6 3 -10 8 -9 7 3 223
-101 232 -111 3 -3 12 -7 20 -9 8 -2 17 -8 18 -13 2 -5 8 -7 13 -3 5 3 22 -4
38 -15 15 -11 31 -18 35 -14 3 3 6 2 6 -4 0 -10 30 -24 60 -27 17 -1 43 30 47
58 4 21 -15 48 -27 41 -4 -3 -10 2 -14 10 -3 8 -11 15 -18 15 -14 0 -168 76
-182 90 -5 5 -14 6 -21 4 -6 -3 -18 2 -25 11 -7 8 -21 15 -31 15 -11 0 -19 4
-19 8 0 8 -76 46 -92 47 -4 0 -13 6 -19 13 -7 6 -21 12 -31 12 -10 0 -18 3
-18 8 0 7 -74 43 -86 41 -4 0 -10 3 -13 8 -3 4 -40 26 -81 47 -41 22 -81 48
-88 58 -13 18 -48 26 -37 8z"/><path d="M200 1195 c-7 -8 -34 -18 -62 -21 -48 -7 -49 -7 -44 -38 2 -17 9 -46
15 -65 6 -19 8 -39 4 -45 -3 -6 -2 -7 3 -3 4 4 13 -11 19 -34 5 -24 15 -44 20
-46 6 -1 28 25 50 60 22 34 44 65 50 69 5 4 6 8 2 8 -5 0 -2 7 7 15 16 16 12
65 -5 76 -6 3 -10 10 -9 15 3 16 -38 23 -50 9z"/><path d="M582 1141 c-8 -4 -13 -11 -12 -15 1 -4 -9 -20 -22 -36 -12 -16 -30
-38 -38 -50 -8 -13 -20 -28 -27 -35 -7 -7 -9 -15 -6 -19 4 -3 1 -6 -6 -6 -7 0
-9 -4 -6 -10 3 -5 -1 -10 -9 -10 -10 0 -13 -6 -10 -15 4 -8 2 -15 -3 -15 -11
0 -98 -131 -95 -142 1 -5 -2 -8 -8 -8 -9 0 -39 -49 -42 -67 0 -5 -9 -14 -20
-21 -10 -7 -16 -17 -13 -21 2 -5 -6 -20 -20 -35 -13 -14 -19 -26 -13 -26 6 0
8 -3 5 -7 -4 -3 1 -15 10 -26 10 -11 13 -17 6 -13 -8 4 -7 -2 2 -21 8 -15 15
-38 15 -50 0 -12 4 -24 9 -27 5 -4 8 -14 6 -24 -1 -9 1 -21 5 -27 12 -16 31
-116 24 -127 -4 -7 -2 -8 4 -4 11 6 18 -19 13 -46 0 -5 4 -8 9 -8 6 0 10 -10
10 -22 0 -13 7 -43 16 -68 17 -48 25 -78 26 -97 2 -24 30 -26 81 -4 16 6 33 9
38 5 5 -3 9 -1 9 5 0 5 8 8 18 7 9 -2 36 5 59 15 22 10 44 15 47 12 3 -4 6 -1
6 5 0 7 3 11 8 11 4 -1 18 -1 31 0 20 1 23 5 18 31 -6 29 -13 60 -17 70 -1 3
-2 8 -1 13 0 4 -2 7 -7 7 -4 0 -8 14 -9 32 -1 17 -6 34 -10 37 -5 3 -9 13 -9
21 -3 34 -10 55 -19 62 -6 5 -5 8 3 9 6 1 15 2 20 3 4 1 26 6 49 10 24 4 45
12 49 17 3 5 10 7 15 4 5 -4 15 -3 22 2 6 4 23 9 37 11 13 2 29 7 35 11 5 5
22 11 37 15 27 6 32 0 45 -51 6 -27 10 -39 17 -55 4 -9 5 -22 1 -28 -3 -5 -1
-10 5 -10 7 0 10 -7 6 -15 -3 -8 -2 -15 2 -15 4 0 8 -11 8 -25 1 -14 7 -39 14
-55 12 -29 13 -29 46 -15 19 8 34 11 34 8 0 -3 7 0 15 7 8 7 15 10 15 6 0 -3
12 -1 28 5 15 6 38 13 52 16 13 2 30 9 36 14 7 5 16 9 20 8 5 -1 12 0 17 1 4
1 10 3 15 5 34 9 42 18 36 44 -4 14 -11 30 -15 36 -5 5 -9 22 -9 37 0 15 -5
28 -11 28 -5 0 -8 4 -5 9 3 5 -1 28 -10 52 -8 24 -17 55 -19 69 -2 14 -8 40
-14 59 -6 19 -8 38 -5 42 3 5 1 9 -3 9 -5 0 -10 12 -11 26 -1 15 -7 33 -13 40
-6 8 -8 14 -4 14 4 0 2 6 -4 13 -6 8 -8 17 -5 20 3 3 2 12 -2 19 -5 7 -9 19
-11 27 -5 34 -26 69 -49 79 -13 7 -24 16 -24 21 0 6 -6 8 -13 5 -8 -3 -20 2
-27 11 -7 8 -21 15 -31 15 -11 0 -19 4 -19 9 0 8 -37 24 -52 22 -5 -1 -8 4 -8
10 0 5 -4 8 -9 5 -5 -4 -11 -3 -13 1 -4 10 -152 83 -167 83 -6 0 -11 5 -11 11
0 5 -4 7 -10 4 -5 -3 -10 -1 -10 4 0 6 -9 11 -20 11 -11 0 -20 5 -20 11 0 5
-4 8 -9 5 -5 -3 -14 1 -21 9 -7 8 -19 15 -26 15 -8 0 -14 5 -14 10 0 12 -20
13 -38 1z"/></g></svg>